<?xml version="1.0" encoding="UTF-8"?><svg id="Layer_1" xmlns="http://www.w3.org/2000/svg" viewBox="0 0 1920 625.15"><defs><style>.cls-1{fill:#6f6f6e;}.cls-1,.cls-2,.cls-3,.cls-4,.cls-5,.cls-6{stroke-width:0px;}.cls-2{fill:#39a935;}.cls-3{fill:#1d1d1b;}.cls-4{fill:#ffec00;}.cls-5{fill:#f18735;}.cls-6{fill:#e5332a;}</style></defs><path class="cls-1" d="m1257.39,547.14c-.88-16.52-1.93-36.37-1.76-51.13h-.53c-4.04,13.88-8.96,28.64-14.93,44.98l-20.91,57.46h-11.6l-19.15-56.4c-5.62-16.69-10.37-31.98-13.71-46.04h-.35c-.35,14.76-1.23,34.61-2.28,52.36l-3.16,50.78h-14.58l8.26-118.43h19.5l20.21,57.28c4.92,14.58,8.96,27.58,11.95,39.88h.53c2.99-11.94,7.2-24.95,12.48-39.88l21.08-57.28h19.5l7.38,118.43h-14.94l-2.99-52.01Z"/><path class="cls-1" d="m1316.23,561.9l-12.3,37.25h-15.81l40.23-118.43h18.45l40.41,118.43h-16.34l-12.65-37.25h-42Zm38.83-11.95l-11.6-34.08c-2.64-7.74-4.39-14.76-6.15-21.61h-.35c-1.76,7.02-3.69,14.23-5.97,21.43l-11.6,34.26h35.67Z"/><path class="cls-1" d="m1404.59,599.15v-118.43h16.69l37.95,59.92c8.79,13.88,15.64,26.35,21.26,38.48l.35-.17c-1.4-15.81-1.76-30.22-1.76-48.67v-49.55h14.41v118.43h-15.46l-37.6-60.09c-8.26-13.18-16.17-26.7-22.14-39.53l-.53.18c.88,14.93,1.23,29.16,1.23,48.84v50.61h-14.41Z"/><path class="cls-1" d="m1539.34,561.9l-12.3,37.25h-15.81l40.23-118.43h18.45l40.41,118.43h-16.34l-12.65-37.25h-42Zm38.83-11.95l-11.6-34.08c-2.64-7.74-4.39-14.76-6.15-21.61h-.35c-1.76,7.02-3.69,14.23-5.97,21.43l-11.6,34.26h35.67Z"/><path class="cls-1" d="m1715.2,593.88c-6.85,2.46-20.38,6.5-36.37,6.5-17.92,0-32.68-4.57-44.27-15.63-10.19-9.84-16.52-25.65-16.52-44.1.17-35.32,24.42-61.14,64.13-61.14,13.7,0,24.42,2.98,29.51,5.45l-3.69,12.48c-6.32-2.82-14.23-5.1-26.18-5.1-28.81,0-47.62,17.92-47.62,47.62s18.1,47.79,45.69,47.79c10.01,0,16.86-1.4,20.38-3.16v-35.31h-24.07v-12.3h39.01v56.93Z"/><path class="cls-1" d="m1799.87,543.62h-46.03v42.7h51.3v12.83h-66.59v-118.43h63.95v12.83h-48.67v37.42h46.03v12.65Z"/><path class="cls-1" d="m1824.98,482.3c7.73-1.58,18.8-2.46,29.34-2.46,16.34,0,26.88,2.98,34.26,9.66,5.97,5.27,9.31,13.36,9.31,22.49,0,15.64-9.84,26.01-22.32,30.22v.53c9.14,3.16,14.59,11.6,17.4,23.89,3.86,16.52,6.68,27.94,9.13,32.51h-15.81c-1.93-3.34-4.57-13.53-7.91-28.29-3.51-16.34-9.83-22.49-23.72-23.02h-14.41v51.3h-15.29v-116.84Zm15.29,53.94h15.63c16.34,0,26.71-8.96,26.71-22.49,0-15.29-11.07-21.96-27.24-22.14-7.38,0-12.65.7-15.11,1.4v43.22Z"/><path class="cls-3" d="m15,48.65c23.8-4.27,53.7-7.93,88.48-7.93,48.82,0,86.04,12.81,108.61,34.78,20.14,18.91,31.73,46.37,31.73,80.55s-9.76,61.63-28.68,82.38c-26.24,29.9-70.17,45.76-120.82,45.76-18.92,0-35.39-.61-50.04-4.88v175.73H15V48.65Zm29.29,205.03c14.04,4.88,32.34,6.1,52.48,6.1,73.83,0,117.77-35.39,117.77-100.68s-46.99-93.97-112.28-93.97c-26.85,0-46.99,2.44-57.97,4.88v183.67Z"/><path class="cls-3" d="m307.91,250.01c0-29.29-.61-59.19-2.44-87.87h26.85l1.22,59.19h1.83c12.82-36.61,43.32-65.9,82.99-65.9,4.27,0,8.54.61,12.2,1.22v28.07c-4.27-1.22-8.55-1.22-14.03-1.22-40.27,0-68.96,34.78-76.89,81.77-1.83,8.54-2.44,18.3-2.44,28.07v161.7h-29.29v-205.02Z"/><path class="cls-3" d="m798.06,88.92h-125.09v-45.15h304.49v45.15h-125.7v366.12h-53.7V88.92Z"/><path class="cls-3" d="m1073.88,76.72c.61,18.31-12.81,32.95-34.17,32.95-18.91,0-32.34-14.64-32.34-32.95s14.04-33.56,33.56-33.56,32.95,14.65,32.95,33.56Zm-59.8,378.32V159.7h53.7v295.33h-53.7Z"/><path class="cls-3" d="m1156.87,239.64c0-30.51-.61-55.53-2.44-79.94h46.99l2.44,47.59h1.83c16.47-28.07,43.93-54.31,92.75-54.31,40.27,0,70.78,24.41,83.59,59.19h1.22c9.16-16.48,20.75-29.29,32.96-38.44,17.69-13.42,37.22-20.75,65.29-20.75,39.05,0,97.01,25.63,97.01,128.14v173.9h-52.47v-167.19c0-56.75-20.74-90.92-64.07-90.92-30.51,0-54.31,22.58-63.47,48.82-2.44,7.32-4.27,17.09-4.27,26.85v182.44h-52.47v-176.96c0-46.99-20.75-81.15-61.63-81.15-33.56,0-57.97,26.85-66.51,53.7-3.05,7.93-4.27,17.09-4.27,26.24v178.17h-52.48v-215.4Z"/><path class="cls-3" d="m1695.7,317.13c1.22,72.62,47.59,102.51,101.29,102.51,38.44,0,61.63-6.71,81.77-15.26l9.15,38.44c-18.92,8.54-51.26,18.31-98.24,18.31-90.92,0-145.23-59.81-145.23-148.89s52.47-159.26,138.51-159.26c96.41,0,122.05,84.82,122.05,139.13,0,10.98-1.23,19.53-1.83,25.01h-207.47Zm157.43-38.44c.62-34.17-14.03-87.26-74.44-87.26-54.31,0-78.11,50.04-82.38,87.26h156.82Z"/><path class="cls-3" d="m593.33,339.37c-3.14,0-6.13-1.31-8.27-3.61l-54.04-58.27c-4.24-4.57-3.97-11.7.6-15.94,4.56-4.23,11.7-3.97,15.94.6l45.54,49.11,125.21-142.4c4.11-4.67,11.24-5.14,15.92-1.02,4.68,4.11,5.14,11.24,1.02,15.92l-133.45,151.78c-2.11,2.4-5.13,3.79-8.32,3.83-.05,0-.1,0-.15,0Z"/><path class="cls-2" d="m592.71,286.64l-98.49-105.41s84.16-81.18,195.52-5.53c-50.29,55.88-97.02,110.94-97.02,110.94Z"/><path class="cls-5" d="m714.32,251c10.32,21.53,15.03,46.05,12.1,71.48-8.27,71.91-73.5,123.68-145.41,115.41-71.91-8.27-123.68-73.5-115.41-145.41,2.92-25.42,13.07-48.24,28.01-66.86l-20.7-26.08c-21.25,24.19-35.66,54.82-39.62,89.23-10.34,89.86,54.14,171.09,144,181.43,89.87,10.34,171.1-54.14,181.43-144,3.96-34.41-3.12-67.51-18.33-95.89l-26.08,20.7Z"/><path class="cls-6" d="m740.4,230.3l-26.08,20.7c10.32,21.53,15.03,46.05,12.1,71.48-4.23,36.75-23.39,68.18-50.66,89.08l22,24.27c32.87-26.06,55.8-64.67,60.97-109.63,3.96-34.41-3.12-67.51-18.33-95.89Z"/><path class="cls-4" d="m668.69,454.23c18.79-9.33,35.62-22.18,49.57-37.8l-23.3-22.83c-10.89,12.48-24.04,22.85-38.76,30.48l12.49,30.16Z"/></svg>