<?xml version="1.0" encoding="UTF-8"?>
<svg xmlns="http://www.w3.org/2000/svg" version="1.1" viewBox="0 0 360 360">
  <defs>
    <style>
      .cls-1 {
        fill: #1d1d1b;
      }

      .cls-2 {
        fill: #f18735;
      }

      .cls-3 {
        fill: #e5332a;
      }

      .cls-4 {
        fill: #39a935;
      }

      .cls-5 {
        fill: #ffec00;
      }
    </style>
  </defs>
  <!-- Generator: Adobe Illustrator 28.6.0, SVG Export Plug-In . SVG Version: 1.2.0 Build 709)  -->
  <g>
    <g id="Layer_1">
      <g>
        <path class="cls-1" d="M177.67,207.89c-2.74,0-5.34-1.14-7.21-3.15l-47.11-50.8c-3.7-3.98-3.46-10.2.52-13.9,3.98-3.69,10.2-3.46,13.9.52l39.7,42.81,109.15-124.14c3.58-4.07,9.8-4.48,13.88-.89,4.08,3.58,4.48,9.8.89,13.88l-116.33,132.31c-1.84,2.09-4.47,3.3-7.25,3.34h-.13,0Z"/>
        <path class="cls-4" d="M177.13,161.93l-85.86-91.89S164.63-.73,261.71,65.22c-43.84,48.71-84.58,96.71-84.58,96.71h0Z"/>
        <path class="cls-2" d="M283.14,130.86c9,18.77,13.1,40.14,10.55,62.31-7.21,62.69-64.07,107.82-126.76,100.61-62.69-7.21-107.82-64.07-100.61-126.76,2.55-22.16,11.39-42.05,24.42-58.28l-18.05-22.73c-18.52,21.09-31.09,47.79-34.54,77.79-9.01,78.33,47.2,149.15,125.53,158.16,78.34,9.01,149.15-47.2,158.16-125.53,3.45-30-2.72-58.85-15.98-83.59l-22.73,18.04h0Z"/>
        <path class="cls-3" d="M305.87,112.81l-22.73,18.04c9,18.77,13.1,40.14,10.55,62.31-3.69,32.04-20.39,59.44-44.16,77.65l19.18,21.16c28.65-22.72,48.64-56.38,53.15-95.57,3.45-30-2.72-58.85-15.98-83.59h0Z"/>
        <path class="cls-5" d="M243.36,308.02c16.38-8.13,31.05-19.34,43.21-32.95l-20.31-19.9c-9.49,10.88-20.96,19.92-33.79,26.57l10.89,26.29h0Z"/>
      </g>
    </g>
  </g>
</svg>